<svg width="13" height="12" viewBox="0 0 13 12" fill="none" xmlns="http://www.w3.org/2000/svg">
<path fill-rule="evenodd" clip-rule="evenodd" d="M6.75399 1.55452C7.07032 1.15239 7.45607 0.819195 7.89018 0.573134C8.31902 0.330394 8.79642 0.202372 9.28158 0.200014C9.76024 0.199496 10.234 0.303308 10.6739 0.505117C11.0992 0.701882 11.485 0.984627 11.8101 1.33784C13.2102 2.86395 13.2102 5.30844 11.8101 6.83455C11.4868 7.1863 6.92837 11.6657 6.50059 11.86C6.07282 11.6657 1.51442 7.1863 1.19019 6.83455C-0.20988 5.30844 -0.20988 2.86395 1.19019 1.33784C1.51553 0.984467 1.90164 0.701709 2.32729 0.505117C2.7669 0.303359 3.24033 0.199546 3.71869 0.200014C4.20373 0.202418 4.68106 0.330085 5.1101 0.572162C5.54438 0.818363 5.93041 1.15153 6.2472 1.55355C6.57409 1.96536 6.42698 1.96589 6.75399 1.55452Z" fill="white"/>
</svg>
