<svg width="14" height="26" viewBox="0 0 14 26" fill="none" xmlns="http://www.w3.org/2000/svg">
<path d="M1.80509 25.6918L13.6749 13.784C13.8833 13.5748 14 13.2943 14 13.0022C14 12.7102 13.8833 12.4296 13.6749 12.2205L1.80509 0.3082C1.70798 0.210663 1.59187 0.133139 1.46362 0.080205C1.33537 0.0272708 1.19757 5.12863e-07 1.05837 5.12863e-07C0.91916 5.12863e-07 0.781362 0.0272708 0.65311 0.080205C0.524858 0.133139 0.408751 0.210663 0.311639 0.3082C0.11185 0.508226 -3.65077e-07 0.776747 -3.65077e-07 1.05636C-3.65077e-07 1.33597 0.11185 1.60449 0.311639 1.80452L11.4736 13.0022L0.311639 24.1977C0.112535 24.3976 0.00111808 24.6657 0.00111808 24.9448C0.00111808 25.2238 0.112535 25.4919 0.311639 25.6918C0.408751 25.7893 0.524858 25.8669 0.65311 25.9198C0.781362 25.9727 0.91916 26 1.05837 26C1.19757 26 1.33537 25.9727 1.46362 25.9198C1.59187 25.8669 1.70798 25.7893 1.80509 25.6918V25.6918Z" fill="white"/>
</svg>
