<svg width="14" height="26" viewBox="0 0 14 26" fill="none" xmlns="http://www.w3.org/2000/svg">
<path d="M12.1949 0.308201L0.32515 12.216C0.116676 12.4252 0 12.7057 0 12.9978C0 13.2898 0.116676 13.5704 0.32515 13.7795L12.1949 25.6918C12.292 25.7893 12.4081 25.8669 12.5364 25.9198C12.6646 25.9727 12.8024 26 12.9416 26C13.0808 26 13.2186 25.9727 13.3469 25.9198C13.4751 25.8669 13.5912 25.7893 13.6884 25.6918C13.8881 25.4918 14 25.2233 14 24.9436C14 24.664 13.8881 24.3955 13.6884 24.1955L2.52639 12.9978L13.6884 1.80228C13.8875 1.60235 13.9989 1.33431 13.9989 1.05524C13.9989 0.776168 13.8875 0.508125 13.6884 0.308201C13.5912 0.210664 13.4751 0.13314 13.3469 0.0802061C13.2186 0.0272719 13.0808 0 12.9416 0C12.8024 0 12.6646 0.0272719 12.5364 0.0802061C12.4081 0.13314 12.292 0.210664 12.1949 0.308201V0.308201Z" fill="white"/>
</svg>
