<svg width="18" height="18" viewBox="0 0 18 18" fill="none" xmlns="http://www.w3.org/2000/svg">
<path fill-rule="evenodd" clip-rule="evenodd" d="M5.16277 9C4.89786 9 4.68311 8.77614 4.68311 8.5L4.6831 4.5C4.6831 2.01472 6.61589 -1.22888e-06 9.0001 -6.14692e-07C11.3843 -9.54177e-07 13.3171 2.01472 13.3171 4.5L13.3171 8.5C13.3171 8.77614 13.1023 9 12.8374 9C12.5725 9 12.3578 8.77614 12.3578 8.5L12.3578 4.5C12.3578 2.567 10.8545 1 9.0001 0.999999C7.14571 1 5.64244 2.567 5.64244 4.5L5.64244 8.5C5.64244 8.77614 5.42768 9 5.16277 9Z" fill="white"/>
<path fill-rule="evenodd" clip-rule="evenodd" d="M4.82281 5H13.1772C13.9868 4.99999 14.641 4.99998 15.1598 5.07019C15.6993 5.14322 16.1566 5.29916 16.5332 5.6603C16.9097 6.02143 17.0967 6.48358 17.2114 7.03794C17.3216 7.57098 17.3759 8.25064 17.4431 9.09162L17.9416 15.3269C17.9798 15.8041 18.0125 16.2132 17.9953 16.5417C17.9769 16.8925 17.8992 17.2337 17.6503 17.5157C17.4014 17.7976 17.0817 17.9067 16.7479 17.9549C16.4352 18.0001 16.0414 18 15.582 18H2.41804C1.95856 18 1.56476 18.0001 1.25213 17.9549C0.918288 17.9067 0.598564 17.7976 0.349681 17.5157C0.100799 17.2337 0.0230537 16.8925 0.00469804 16.5417C-0.0124921 16.2132 0.0202328 15.8041 0.058415 15.3268L0.556887 9.09162C0.624106 8.25063 0.67843 7.57098 0.788638 7.03794C0.903254 6.48358 1.09032 6.02143 1.46684 5.6603C1.84336 5.29916 2.30072 5.14322 2.84021 5.07019C3.35896 4.99998 4.01324 4.99999 4.82281 5ZM2.96375 6.06187C2.52762 6.1209 2.29063 6.22908 2.11641 6.39618C1.94219 6.56328 1.81909 6.80047 1.72644 7.24862C1.63088 7.71078 1.5808 8.32544 1.51013 9.20934L1.01719 15.3754C0.975502 15.8969 0.949467 16.2362 0.962606 16.4873C0.974992 16.724 1.0195 16.7976 1.05564 16.8386C1.09177 16.8795 1.15848 16.9318 1.38374 16.9644C1.62271 16.9989 1.94924 17 2.45122 17H15.5488C16.0508 17 16.3773 16.9989 16.6163 16.9644C16.8415 16.9318 16.9082 16.8795 16.9444 16.8386C16.9805 16.7976 17.025 16.724 17.0374 16.4873C17.0505 16.2362 17.0245 15.8969 16.9828 15.3754L16.4899 9.20934C16.4192 8.32544 16.3691 7.71078 16.2736 7.24862C16.1809 6.80047 16.0578 6.56328 15.8836 6.39618C15.7094 6.22908 15.4724 6.1209 15.0363 6.06187C14.5865 6.00099 13.9947 6 13.1438 6H4.8562C4.0053 6 3.41352 6.00099 2.96375 6.06187Z" fill="white"/>
</svg>
