<svg width="17" height="17" viewBox="0 0 17 17" fill="none" xmlns="http://www.w3.org/2000/svg">
<path fill-rule="evenodd" clip-rule="evenodd" d="M3.21098 12.9654C4.73991 12.1356 6.59878 11.6924 8.5 11.6924C10.4012 11.6924 12.2601 12.1356 13.789 12.9654C15.3177 13.7951 16.45 14.9767 16.9697 16.3488C17.0657 16.6021 16.9257 16.8809 16.6571 16.9714C16.3884 17.062 16.0928 16.9299 15.9969 16.6766C15.5748 15.5624 14.6319 14.5471 13.2737 13.8099C11.9158 13.0729 10.2376 12.6668 8.5 12.6667C6.76244 12.6667 5.0842 13.0729 3.72629 13.8099C2.36808 14.5471 1.42521 15.5624 1.00314 16.6766C0.907162 16.9299 0.611564 17.062 0.342908 16.9714C0.074252 16.8809 -0.0657283 16.6021 0.0302534 16.3488C0.549979 14.9767 1.68234 13.7951 3.21098 12.9654Z" fill="white"/>
<path fill-rule="evenodd" clip-rule="evenodd" d="M8.5 1C6.567 1 5 2.567 5 4.5C5 6.433 6.567 8 8.5 8C10.433 8 12 6.433 12 4.5C12 2.567 10.433 1 8.5 1ZM4 4.5C4 2.01472 6.01472 0 8.5 0C10.9853 0 13 2.01472 13 4.5C13 6.98528 10.9853 9 8.5 9C6.01472 9 4 6.98528 4 4.5Z" fill="white"/>
</svg>
