<svg width="215" height="67" viewBox="0 0 215 67" fill="none" xmlns="http://www.w3.org/2000/svg">
<path d="M95.7771 55.8986L91.6517 65.3182H89.9328L85.8075 55.8986H87.7326L90.8954 63.1868L94.0582 55.8986H95.7771ZM106.709 63.1868H101.965L101.003 65.3869H99.2149L103.478 55.9674H105.197L109.46 65.3869H107.603L106.709 63.1868ZM106.09 61.8116L104.303 57.6863L102.515 61.8116H106.09ZM120.736 56.3112C121.354 56.5862 121.836 56.9987 122.111 57.48C122.454 57.9613 122.592 58.5801 122.592 59.2677C122.592 59.9552 122.454 60.574 122.111 61.0553C121.767 61.5366 121.354 61.9491 120.736 62.2242C120.117 62.4992 119.429 62.6367 118.604 62.6367H116.473V65.3869H114.685V55.9674H118.604C119.429 55.8986 120.117 56.0361 120.736 56.3112ZM120.254 60.6428C120.667 60.299 120.873 59.8865 120.873 59.2677C120.873 58.6489 120.667 58.1676 120.254 57.8926C119.842 57.5488 119.292 57.4113 118.535 57.4113H116.473V61.1928H118.535C119.292 61.1241 119.842 60.9866 120.254 60.6428ZM135.518 63.8743V65.3182H128.436V55.8986H135.312V57.3425H130.155V59.8177H134.693V61.2616H130.155V63.8743H135.518ZM150.094 65.1807C149.407 64.9744 148.857 64.6994 148.513 64.3556L149.132 62.9805C149.544 63.2555 150.026 63.5305 150.576 63.7368C151.126 63.9431 151.676 64.0118 152.295 64.0118C152.982 64.0118 153.532 63.8743 153.876 63.6681C154.22 63.4618 154.426 63.118 154.426 62.7742C154.426 62.4992 154.357 62.2929 154.151 62.0867C153.945 61.8804 153.738 61.7429 153.395 61.6741C153.12 61.6054 152.707 61.4679 152.157 61.3304C151.469 61.1928 150.851 60.9866 150.438 60.8491C150.026 60.7115 149.613 60.4365 149.269 60.024C148.925 59.6802 148.788 59.1989 148.788 58.5801C148.788 58.0301 148.925 57.6175 149.201 57.1362C149.476 56.7237 149.888 56.3799 150.507 56.1049C151.057 55.8299 151.744 55.7611 152.638 55.7611C153.188 55.7611 153.807 55.8299 154.357 55.9674C154.907 56.1049 155.389 56.3111 155.801 56.5862L155.251 57.9613C154.839 57.6863 154.426 57.5488 153.945 57.4113C153.463 57.2737 153.051 57.205 152.638 57.205C151.951 57.205 151.401 57.3425 151.126 57.5488C150.782 57.755 150.644 58.0988 150.644 58.5114C150.644 58.7864 150.713 58.9926 150.919 59.1989C151.126 59.3364 151.332 59.4739 151.676 59.6115C151.951 59.6802 152.363 59.8177 152.913 59.9552C153.601 60.0927 154.22 60.299 154.632 60.4365C155.114 60.6428 155.457 60.8491 155.801 61.2616C156.145 61.6054 156.282 62.0867 156.282 62.7055C156.282 63.2555 156.145 63.668 155.87 64.1493C155.595 64.6306 155.182 64.9056 154.563 65.1807C154.013 65.4557 153.257 65.5245 152.432 65.5245C151.469 65.5245 150.782 65.3869 150.094 65.1807ZM167.833 56.3112C168.452 56.5862 168.933 56.9987 169.208 57.48C169.552 57.9613 169.69 58.5801 169.69 59.2677C169.69 59.9552 169.552 60.574 169.208 61.0553C168.865 61.5366 168.452 61.9491 167.833 62.2242C167.215 62.4992 166.527 62.6367 165.702 62.6367H163.57V65.3869H161.783V55.9674H165.702C166.527 55.8986 167.283 56.0361 167.833 56.3112ZM167.352 60.6428C167.765 60.299 167.971 59.8865 167.971 59.2677C167.971 58.6489 167.765 58.1676 167.352 57.8926C166.94 57.5488 166.389 57.4113 165.633 57.4113H163.57V61.1928H165.633C166.389 61.1241 167.008 60.9866 167.352 60.6428ZM177.459 64.9056C176.703 64.4931 176.084 63.8743 175.603 63.1868C175.19 62.4304 174.915 61.6054 174.915 60.7115C174.915 59.8177 175.121 58.9926 175.603 58.2363C176.084 57.48 176.634 56.93 177.459 56.5174C178.216 56.1049 179.109 55.8986 180.072 55.8986C181.035 55.8986 181.928 56.1049 182.685 56.5174C183.441 56.93 184.06 57.48 184.541 58.2363C185.022 58.9926 185.229 59.8177 185.229 60.7115C185.229 61.6054 185.022 62.4992 184.541 63.1868C184.129 63.9431 183.51 64.4931 182.685 64.9056C181.928 65.3182 181.035 65.5245 180.072 65.5245C179.109 65.5245 178.284 65.3182 177.459 64.9056ZM181.791 63.5305C182.272 63.2555 182.685 62.843 182.96 62.3617C183.235 61.8804 183.372 61.2616 183.372 60.6428C183.372 60.024 183.235 59.4739 182.96 58.9239C182.685 58.4426 182.272 58.0301 181.791 57.755C181.31 57.48 180.691 57.3425 180.072 57.3425C179.453 57.3425 178.903 57.48 178.353 57.755C177.872 58.0301 177.459 58.4426 177.184 58.9239C176.909 59.4052 176.772 60.024 176.772 60.6428C176.772 61.2616 176.909 61.8116 177.184 62.3617C177.459 62.843 177.872 63.2555 178.353 63.5305C178.834 63.8056 179.453 63.9431 180.072 63.9431C180.691 63.9431 181.31 63.8056 181.791 63.5305ZM192.861 57.4113H189.698V55.8986H197.742V57.4113H194.579V65.3869H192.792V57.4113H192.861ZM67.6559 66.8308C67.6559 66.8308 43.5913 37.472 43.5913 24.1334C43.5913 10.8635 54.386 0 67.6559 0C80.9258 0 91.7205 10.7947 91.7205 24.1334C91.7205 37.472 67.6559 66.8308 67.6559 66.8308ZM25.3022 45.9978C28.5337 39.1222 31.559 31.9028 34.5155 24.4084C37.472 16.914 40.2222 9.35082 42.835 1.85642H34.2405C33.2779 4.81293 32.2466 7.90694 31.1465 11.001C30.0464 14.095 29.015 17.189 27.9149 20.2143C26.8148 23.2395 25.7835 26.1273 24.6834 28.9463C23.5833 31.7653 22.6207 34.3092 21.5894 36.6469C20.558 34.3092 19.5267 31.7653 18.4266 28.9463C17.3265 26.1273 16.2952 23.2395 15.2638 20.2143C14.1637 17.189 13.1324 14.1637 12.0323 11.0697C10.9322 7.9757 9.90086 4.95042 8.86952 1.92516H0C2.54397 9.41956 5.29421 16.9827 8.25072 24.4771C11.2072 31.9715 14.3012 39.1909 17.464 46.0665H25.3022V45.9978ZM105.609 39.0534V1.78766H97.5647V45.9978H125.48V39.0534H105.609ZM168.246 45.9978V1.78766H160.27V31.1465C158.826 28.8775 157.176 26.4023 155.32 23.7208C153.463 21.0393 151.538 18.4266 149.613 15.8139C147.619 13.2012 145.694 10.6572 143.7 8.18196C141.775 5.70674 139.918 3.64408 138.2 1.85642H131.599V46.0665H139.506V14.4388C141.294 16.5702 143.15 18.9766 145.144 21.5894C147.138 24.2709 149.063 27.0211 150.988 29.8401C152.913 32.6591 154.77 35.4781 156.557 38.2283C158.345 41.0473 159.926 43.5913 161.37 46.0665H168.246V45.9978ZM197.536 29.7026V45.9978H189.492V29.7026C184.472 23.1708 176.153 11.4823 171.959 1.78766H179.797C179.797 1.78766 183.097 7.83819 186.329 12.7886C190.11 18.5641 193.479 22.827 193.479 22.827C193.479 22.827 196.986 18.7016 200.836 12.8574C204.755 7.01312 207.162 1.78766 207.162 1.78766H215C210.875 11.4823 202.486 23.1708 197.536 29.7026Z" fill="url(#paint0_linear_0_275)"/>
<path d="M67.656 40.0847C76.5037 40.0847 83.6762 32.9123 83.6762 24.0646C83.6762 15.2169 76.5037 8.04443 67.656 8.04443C58.8083 8.04443 51.6359 15.2169 51.6359 24.0646C51.6359 32.9123 58.8083 40.0847 67.656 40.0847Z" fill="white"/>
<path d="M67.656 40.0847C76.5037 40.0847 83.6762 32.9123 83.6762 24.0646C83.6762 15.2169 76.5037 8.04443 67.656 8.04443C58.8083 8.04443 51.6359 15.2169 51.6359 24.0646C51.6359 32.9123 58.8083 40.0847 67.656 40.0847Z" fill="white"/>
<path d="M67.6559 36.8532C74.7948 36.8532 80.582 31.066 80.582 23.9271C80.582 16.7882 74.7948 11.001 67.6559 11.001C60.517 11.001 54.7297 16.7882 54.7297 23.9271C54.7297 31.066 60.517 36.8532 67.6559 36.8532Z" fill="url(#paint1_linear_0_275)"/>
<defs>
<linearGradient id="paint0_linear_0_275" x1="0.121354" y1="33.4729" x2="215.04" y2="33.4729" gradientUnits="userSpaceOnUse">
<stop stop-color="#3A4F8E"/>
<stop offset="1" stop-color="#A36F96"/>
</linearGradient>
<linearGradient id="paint1_linear_0_275" x1="55.9343" y1="28.3305" x2="80.6326" y2="21.7927" gradientUnits="userSpaceOnUse">
<stop stop-color="#D4473D"/>
<stop offset="1" stop-color="#DCB54E"/>
</linearGradient>
</defs>
</svg>
