<svg width="15" height="15" viewBox="0 0 15 15" fill="none" xmlns="http://www.w3.org/2000/svg">
<path fill-rule="evenodd" clip-rule="evenodd" d="M11.2995 11.3C11.5087 11.0908 11.8479 11.0908 12.0571 11.3L14.8428 14.0857C15.052 14.2949 15.052 14.6341 14.8428 14.8433C14.6336 15.0525 14.2944 15.0525 14.0852 14.8433L11.2995 12.0576C11.0903 11.8484 11.0903 11.5092 11.2995 11.3Z" fill="white"/>
<path fill-rule="evenodd" clip-rule="evenodd" d="M6.10714 1.07143C3.32599 1.07143 1.07143 3.32599 1.07143 6.10714C1.07143 8.88829 3.32599 11.1429 6.10714 11.1429C8.88829 11.1429 11.1429 8.88829 11.1429 6.10714C11.1429 3.32599 8.88829 1.07143 6.10714 1.07143ZM0 6.10714C0 2.73426 2.73426 0 6.10714 0C9.48002 0 12.2143 2.73426 12.2143 6.10714C12.2143 9.48002 9.48002 12.2143 6.10714 12.2143C2.73426 12.2143 0 9.48002 0 6.10714Z" fill="white"/>
</svg>
